<svg xmlns="http://www.w3.org/2000/svg" width="24" height="24"><path fill="#717171" fill-rule="evenodd" d="M13.61 16.422l1.015.703c-.078.39-.312.697-.703.918-.39.221-.833.332-1.328.332H9.078c-.182 0-.351.04-.508.117L6.5 20.25v-1.875h-.625c-.52 0-.964-.15-1.328-.45A1.425 1.425 0 014 16.774v-5.039c0-.494.176-.911.527-1.25a1.765 1.765 0 011.27-.507h.078v3.945c0 .65.247 1.198.742 1.64.495.443 1.08.665 1.758.665h4.57c.235 0 .456.065.664.195zM17.79 4a2.44 2.44 0 011.737.684 2.2 2.2 0 01.723 1.66v6.562a2.2 2.2 0 01-.723 1.66 2.44 2.44 0 01-1.738.684h-.664v2.5l-2.93-2.344c-.104-.104-.325-.156-.664-.156H9.586a2.44 2.44 0 01-1.738-.684 2.2 2.2 0 01-.723-1.66V6.344c0-.677.195-1.237.586-1.68C8.1 4.221 8.635 4 9.312 4h8.477z"/></svg>