<svg xmlns="http://www.w3.org/2000/svg" width="24" height="24"><path fill="#717171" fill-rule="evenodd" d="M16.72 7.28l1.96-1.96v5.86h-5.86l2.7-2.7a5.095 5.095 0 00-1.61-1.09A4.799 4.799 0 0012 7c-.907 0-1.743.223-2.51.67a4.964 4.964 0 00-1.82 1.82A4.898 4.898 0 007 12c0 .907.223 1.743.67 2.51a4.964 4.964 0 001.82 1.82c.767.447 1.603.67 2.51.67 1.08 0 2.053-.307 2.92-.92a4.733 4.733 0 001.8-2.4h1.72a6.39 6.39 0 01-1.3 2.57 6.782 6.782 0 01-2.24 1.77c-.907.44-1.873.66-2.9.66-1.2 0-2.32-.307-3.36-.92a6.523 6.523 0 01-2.38-2.4 6.541 6.541 0 01-.9-3.36c0-1.213.3-2.333.9-3.36a6.523 6.523 0 012.38-2.4A6.501 6.501 0 0112 5.32c.907 0 1.767.173 2.58.52a6.724 6.724 0 012.14 1.44z"/></svg>