<svg viewBox="0 0 384 512" xmlns="http://www.w3.org/2000/svg" overflow="hidden"><path d="M369.94 97.94l-83.88-83.88A48 48 0 00252.12 0H48C21.49 0 0 21.49 0 48v416c0 26.51 21.49 48 48 48h288c26.51 0 48-21.49 48-48V131.88a48.001 48.001 0 00-14.06-33.94zm-22.63 22.63a15.999 15.999 0 014.2 7.43H256V32.49a16.003 16.003 0 017.43 4.2zM336 480H48c-8.837 0-16-7.163-16-16V48c0-8.837 7.163-16 16-16h176v104c0 13.255 10.745 24 24 24h104v304c0 8.837-7.163 16-16 16z"/><path d="M192 255.92a49.86 49.86 0 00-14 2.25c6.712 12.066 2.371 27.288-9.695 34a25.001 25.001 0 01-24.305 0c-7.671 26.608 7.68 54.396 34.288 62.067 26.608 7.671 54.396-7.68 62.068-34.288 7.671-26.608-7.681-54.396-34.289-62.067A50.14 50.14 0 00192 255.92zm127.76 43.74C295.41 252.15 247.2 220 192 220S88.58 252.17 64.24 299.66a14.55 14.55 0 000 13.11c24.35 47.51 72.56 79.66 127.76 79.66s103.42-32.17 127.76-79.66a14.552 14.552 0 000-13.11zM192 370.88c-44.3 0-84.91-24.7-106.84-64.66 21.93-40 62.54-64.67 106.84-64.67 44.3 0 84.91 24.7 106.84 64.67-21.93 39.96-62.54 64.66-106.84 64.66z"/></svg>